<mxfile host="app.diagrams.net" modified="2023-10-05T06:00:00.541Z" agent="Mozilla/5.0 (Windows NT 10.0; Win64; x64) AppleWebKit/537.36 (KHTML, like Gecko) Chrome/117.0.0.0 Safari/537.36 Edg/117.0.2045.41" etag="g5PA1WJCx-kNeWshtHWP" version="21.7.5" type="github">
  <diagram name="第 1 页" id="iTNEwLLfTPPC71i8M7_Z">
    <mxGraphModel dx="1204" dy="669" grid="1" gridSize="10" guides="1" tooltips="1" connect="1" arrows="1" fold="1" page="1" pageScale="1" pageWidth="827" pageHeight="1169" math="0" shadow="0">
      <root>
        <mxCell id="0" />
        <mxCell id="1" parent="0" />
        <mxCell id="mmltEMZP5EZy5meypDgI-24" value="" style="rounded=1;whiteSpace=wrap;html=1;strokeColor=#d79b00;fillColor=#ffe6cc;fontSize=24;align=center;opacity=60;" vertex="1" parent="1">
          <mxGeometry x="559" y="264" width="120" height="166" as="geometry" />
        </mxCell>
        <mxCell id="mmltEMZP5EZy5meypDgI-23" value="" style="rounded=1;whiteSpace=wrap;html=1;strokeColor=#d79b00;fillColor=#ffe6cc;fontSize=24;align=center;opacity=60;" vertex="1" parent="1">
          <mxGeometry x="355" y="264" width="120" height="166" as="geometry" />
        </mxCell>
        <mxCell id="mmltEMZP5EZy5meypDgI-30" style="rounded=0;orthogonalLoop=1;jettySize=auto;html=1;strokeWidth=3;startArrow=classic;startFill=1;exitX=0.935;exitY=0.994;exitDx=0;exitDy=0;exitPerimeter=0;" edge="1" parent="1" source="mmltEMZP5EZy5meypDgI-18" target="mmltEMZP5EZy5meypDgI-2">
          <mxGeometry relative="1" as="geometry" />
        </mxCell>
        <mxCell id="mmltEMZP5EZy5meypDgI-18" value="" style="rounded=1;whiteSpace=wrap;html=1;strokeColor=#d79b00;fillColor=#ffe6cc;fontSize=24;align=center;opacity=60;" vertex="1" parent="1">
          <mxGeometry x="149" y="264" width="120" height="166" as="geometry" />
        </mxCell>
        <mxCell id="mmltEMZP5EZy5meypDgI-1" value="" style="verticalLabelPosition=bottom;sketch=0;aspect=fixed;html=1;verticalAlign=top;strokeColor=none;align=center;outlineConnect=0;shape=mxgraph.citrix.smtp_server;" vertex="1" parent="1">
          <mxGeometry x="377" y="330" width="76" height="92" as="geometry" />
        </mxCell>
        <mxCell id="mmltEMZP5EZy5meypDgI-31" style="rounded=0;orthogonalLoop=1;jettySize=auto;html=1;entryX=0.5;entryY=1;entryDx=0;entryDy=0;startArrow=classic;startFill=1;strokeWidth=3;" edge="1" parent="1" source="mmltEMZP5EZy5meypDgI-2" target="mmltEMZP5EZy5meypDgI-23">
          <mxGeometry relative="1" as="geometry" />
        </mxCell>
        <mxCell id="mmltEMZP5EZy5meypDgI-32" style="rounded=0;orthogonalLoop=1;jettySize=auto;html=1;entryX=0;entryY=1;entryDx=0;entryDy=0;startArrow=classic;startFill=1;strokeWidth=3;" edge="1" parent="1" source="mmltEMZP5EZy5meypDgI-2" target="mmltEMZP5EZy5meypDgI-24">
          <mxGeometry relative="1" as="geometry" />
        </mxCell>
        <mxCell id="mmltEMZP5EZy5meypDgI-33" style="rounded=0;orthogonalLoop=1;jettySize=auto;html=1;startArrow=classic;startFill=1;strokeWidth=3;" edge="1" parent="1" source="mmltEMZP5EZy5meypDgI-2" target="mmltEMZP5EZy5meypDgI-3">
          <mxGeometry relative="1" as="geometry" />
        </mxCell>
        <mxCell id="mmltEMZP5EZy5meypDgI-2" value="" style="verticalLabelPosition=bottom;sketch=0;aspect=fixed;html=1;verticalAlign=top;strokeColor=none;align=center;outlineConnect=0;shape=mxgraph.citrix.smtp_server;" vertex="1" parent="1">
          <mxGeometry x="377" y="509" width="76" height="92" as="geometry" />
        </mxCell>
        <mxCell id="mmltEMZP5EZy5meypDgI-3" value="" style="verticalLabelPosition=bottom;sketch=0;aspect=fixed;html=1;verticalAlign=top;strokeColor=none;align=center;outlineConnect=0;shape=mxgraph.citrix.smtp_server;" vertex="1" parent="1">
          <mxGeometry x="377" y="689" width="76" height="92" as="geometry" />
        </mxCell>
        <mxCell id="mmltEMZP5EZy5meypDgI-14" style="rounded=0;orthogonalLoop=1;jettySize=auto;html=1;entryX=0.96;entryY=0.7;entryDx=0;entryDy=0;entryPerimeter=0;strokeWidth=3;exitX=0;exitY=0;exitDx=0;exitDy=0;" edge="1" parent="1" source="mmltEMZP5EZy5meypDgI-24" target="mmltEMZP5EZy5meypDgI-6">
          <mxGeometry relative="1" as="geometry" />
        </mxCell>
        <mxCell id="mmltEMZP5EZy5meypDgI-15" style="rounded=0;orthogonalLoop=1;jettySize=auto;html=1;strokeWidth=3;exitX=0;exitY=0;exitDx=0;exitDy=0;" edge="1" parent="1" source="mmltEMZP5EZy5meypDgI-24" target="mmltEMZP5EZy5meypDgI-7">
          <mxGeometry relative="1" as="geometry" />
        </mxCell>
        <mxCell id="mmltEMZP5EZy5meypDgI-4" value="" style="verticalLabelPosition=bottom;sketch=0;aspect=fixed;html=1;verticalAlign=top;strokeColor=none;align=center;outlineConnect=0;shape=mxgraph.citrix.smtp_server;" vertex="1" parent="1">
          <mxGeometry x="581" y="330" width="76" height="92" as="geometry" />
        </mxCell>
        <mxCell id="mmltEMZP5EZy5meypDgI-12" style="edgeStyle=elbowEdgeStyle;rounded=0;orthogonalLoop=1;jettySize=auto;html=1;elbow=vertical;strokeWidth=3;strokeColor=#468CAA;" edge="1" parent="1" source="mmltEMZP5EZy5meypDgI-18" target="mmltEMZP5EZy5meypDgI-6">
          <mxGeometry relative="1" as="geometry">
            <Array as="points">
              <mxPoint x="209" y="180" />
            </Array>
          </mxGeometry>
        </mxCell>
        <mxCell id="mmltEMZP5EZy5meypDgI-5" value="" style="verticalLabelPosition=bottom;sketch=0;aspect=fixed;html=1;verticalAlign=top;strokeColor=none;align=center;outlineConnect=0;shape=mxgraph.citrix.smtp_server;" vertex="1" parent="1">
          <mxGeometry x="171" y="330" width="76" height="92" as="geometry" />
        </mxCell>
        <mxCell id="mmltEMZP5EZy5meypDgI-11" style="rounded=0;orthogonalLoop=1;jettySize=auto;html=1;strokeWidth=3;entryX=0.75;entryY=0;entryDx=0;entryDy=0;" edge="1" parent="1" source="mmltEMZP5EZy5meypDgI-6" target="mmltEMZP5EZy5meypDgI-18">
          <mxGeometry relative="1" as="geometry" />
        </mxCell>
        <mxCell id="mmltEMZP5EZy5meypDgI-6" value="&lt;b&gt;Cloud&lt;br&gt;M365&lt;br&gt;&lt;/b&gt;" style="ellipse;shape=cloud;whiteSpace=wrap;html=1;" vertex="1" parent="1">
          <mxGeometry x="247" y="130" width="120" height="80" as="geometry" />
        </mxCell>
        <mxCell id="mmltEMZP5EZy5meypDgI-16" style="rounded=0;orthogonalLoop=1;jettySize=auto;html=1;strokeWidth=3;entryX=1;entryY=0;entryDx=0;entryDy=0;exitX=0.13;exitY=0.77;exitDx=0;exitDy=0;exitPerimeter=0;" edge="1" parent="1" source="mmltEMZP5EZy5meypDgI-7" target="mmltEMZP5EZy5meypDgI-18">
          <mxGeometry relative="1" as="geometry" />
        </mxCell>
        <mxCell id="mmltEMZP5EZy5meypDgI-17" style="rounded=0;orthogonalLoop=1;jettySize=auto;html=1;strokeWidth=3;entryX=0.5;entryY=0;entryDx=0;entryDy=0;exitX=0.13;exitY=0.77;exitDx=0;exitDy=0;exitPerimeter=0;" edge="1" parent="1" source="mmltEMZP5EZy5meypDgI-7" target="mmltEMZP5EZy5meypDgI-23">
          <mxGeometry relative="1" as="geometry" />
        </mxCell>
        <mxCell id="mmltEMZP5EZy5meypDgI-7" value="&lt;b&gt;Internet&lt;/b&gt;" style="ellipse;shape=cloud;whiteSpace=wrap;html=1;" vertex="1" parent="1">
          <mxGeometry x="461" y="130" width="120" height="80" as="geometry" />
        </mxCell>
        <mxCell id="mmltEMZP5EZy5meypDgI-13" value="Load balance for &lt;b&gt;&lt;font style=&quot;font-size: 13px;&quot;&gt;Mail out&lt;/font&gt;&lt;/b&gt;&lt;br&gt;member use Cloud only" style="text;html=1;align=center;verticalAlign=middle;resizable=0;points=[];autosize=1;strokeColor=none;fillColor=none;" vertex="1" parent="1">
          <mxGeometry x="45" y="180" width="170" height="40" as="geometry" />
        </mxCell>
        <mxCell id="mmltEMZP5EZy5meypDgI-19" value="&lt;b&gt;&lt;font color=&quot;#ff8000&quot;&gt;TMG2&lt;/font&gt;&lt;/b&gt;" style="text;html=1;align=center;verticalAlign=middle;resizable=0;points=[];autosize=1;strokeColor=none;fillColor=none;" vertex="1" parent="1">
          <mxGeometry x="149" y="264" width="60" height="30" as="geometry" />
        </mxCell>
        <mxCell id="mmltEMZP5EZy5meypDgI-20" value="HQE14&lt;br&gt;EDGESRV" style="text;html=1;align=center;verticalAlign=middle;resizable=0;points=[];autosize=1;strokeColor=none;fillColor=none;" vertex="1" parent="1">
          <mxGeometry x="169" y="290" width="80" height="40" as="geometry" />
        </mxCell>
        <mxCell id="mmltEMZP5EZy5meypDgI-21" value="HQE14SRV" style="text;html=1;align=center;verticalAlign=middle;resizable=0;points=[];autosize=1;strokeColor=none;fillColor=none;" vertex="1" parent="1">
          <mxGeometry x="370" y="300" width="90" height="30" as="geometry" />
        </mxCell>
        <mxCell id="mmltEMZP5EZy5meypDgI-22" value="HQE14&lt;br&gt;EDGE2SRV" style="text;html=1;align=center;verticalAlign=middle;resizable=0;points=[];autosize=1;strokeColor=none;fillColor=none;" vertex="1" parent="1">
          <mxGeometry x="574" y="294" width="90" height="40" as="geometry" />
        </mxCell>
        <mxCell id="mmltEMZP5EZy5meypDgI-26" value="&lt;b&gt;&lt;font color=&quot;#ff8000&quot;&gt;TMG2&lt;/font&gt;&lt;/b&gt;" style="text;html=1;align=center;verticalAlign=middle;resizable=0;points=[];autosize=1;strokeColor=none;fillColor=none;" vertex="1" parent="1">
          <mxGeometry x="355" y="264" width="60" height="30" as="geometry" />
        </mxCell>
        <mxCell id="mmltEMZP5EZy5meypDgI-27" value="&lt;b&gt;&lt;font color=&quot;#ff8000&quot;&gt;TMG5&lt;/font&gt;&lt;/b&gt;" style="text;html=1;align=center;verticalAlign=middle;resizable=0;points=[];autosize=1;strokeColor=none;fillColor=none;" vertex="1" parent="1">
          <mxGeometry x="559" y="264" width="60" height="30" as="geometry" />
        </mxCell>
        <mxCell id="mmltEMZP5EZy5meypDgI-28" value="HQE14&lt;br&gt;HUBSRV" style="text;html=1;align=center;verticalAlign=middle;resizable=0;points=[];autosize=1;strokeColor=none;fillColor=none;" vertex="1" parent="1">
          <mxGeometry x="453" y="535" width="70" height="40" as="geometry" />
        </mxCell>
        <mxCell id="mmltEMZP5EZy5meypDgI-29" value="MailBox(DB)" style="text;html=1;align=center;verticalAlign=middle;resizable=0;points=[];autosize=1;strokeColor=none;fillColor=none;" vertex="1" parent="1">
          <mxGeometry x="453" y="720" width="90" height="30" as="geometry" />
        </mxCell>
      </root>
    </mxGraphModel>
  </diagram>
</mxfile>
